<svg width="15" height="15" viewBox="0 0 15 15" fill="none" xmlns="http://www.w3.org/2000/svg">
<path d="M8.87425 7.51266L14.715 1.67178C15.0951 1.29185 15.0951 0.677564 14.715 0.297639C14.335 -0.0822859 13.7207 -0.0822859 13.3408 0.297639L7.49993 6.13852L1.65922 0.297639C1.27911 -0.0822859 0.665004 -0.0822859 0.285078 0.297639C-0.0950259 0.677564 -0.0950259 1.29185 0.285078 1.67178L6.12579 7.51266L0.285078 13.3535C-0.0950259 13.7335 -0.0950259 14.3477 0.285078 14.7277C0.474418 14.9172 0.723372 15.0124 0.972147 15.0124C1.22092 15.0124 1.4697 14.9172 1.65922 14.7277L7.49993 8.88679L13.3408 14.7277C13.5303 14.9172 13.7791 15.0124 14.0279 15.0124C14.2767 15.0124 14.5254 14.9172 14.715 14.7277C15.0951 14.3477 15.0951 13.7335 14.715 13.3535L8.87425 7.51266Z" fill="#666666"/>
</svg>
