<svg width="25" height="25" viewBox="0 0 25 25" fill="none" xmlns="http://www.w3.org/2000/svg">
<path d="M18.7302 0H6.25C2.81746 0 0 2.81746 0 6.26984V18.75C0 22.1825 2.81746 25 6.25 25H18.7302C22.1825 25 25 22.1825 25 18.7302V6.26984C25 2.81746 22.1825 0 18.7302 0ZM15.8532 12.5H13.4921V20.2381H10.5159V12.5H8.92857V9.3254H10.3175V7.97619C10.3175 6.70635 10.9524 4.70238 13.631 4.70238H16.0714V7.34127H14.3452C14.0675 7.34127 13.6905 7.51984 13.6905 8.13492V9.3254H16.131L15.8532 12.5Z" fill="#640000"/>
</svg>
