<svg width="25" height="25" viewBox="0 0 25 25" fill="none" xmlns="http://www.w3.org/2000/svg">
<path d="M14.7105 10.894C14.2149 10.2001 13.402 9.74414 12.4901 9.74414C11.5781 9.74414 10.7653 10.2001 10.2696 10.894C9.95241 11.35 9.75415 11.9051 9.75415 12.4999C9.75415 14.0066 10.9833 15.2358 12.4901 15.2358C13.9968 15.2358 15.226 14.0066 15.226 12.4999C15.226 11.9051 15.0277 11.35 14.7105 10.894Z" fill="#640000"/>
<path d="M16.4354 10.9141C16.6336 11.3106 16.7526 11.945 16.7526 12.5001C16.7526 14.8395 14.8493 16.7626 12.4901 16.7626C10.1308 16.7626 8.22759 14.8593 8.22759 12.5001C8.22759 11.9252 8.34654 11.3106 8.54479 10.9141H6.1459V17.2781C6.1459 18.1107 6.87945 18.8443 7.71212 18.8443H17.268C18.1007 18.8443 18.8342 18.1107 18.8342 17.2781V10.9141H16.4354Z" fill="#640000"/>
<path d="M18.1206 6.51275H15.8208V9.14954H18.4378V6.84978V6.49292L18.1206 6.51275Z" fill="#640000"/>
<path d="M18.7153 0.00952148H6.26487C2.81523 0.00952148 0 2.82475 0 6.27439V18.7447C0 22.1745 2.81523 24.9897 6.26487 24.9897H18.7351C22.1848 24.9897 25 22.1745 25 18.7248V6.27439C24.9802 2.82475 22.1649 0.00952148 18.7153 0.00952148ZM20.222 10.8937V17.2776C20.222 18.9429 18.9334 20.2316 17.268 20.2316H7.71213C6.04679 20.2316 4.75813 18.9429 4.75813 17.2776V10.8937V7.72165C4.75813 6.05631 6.04679 4.76765 7.71213 4.76765H17.268C18.9334 4.76765 20.222 6.05631 20.222 7.72165V10.8937Z" fill="#640000"/>
</svg>
