<svg width="80" height="80" viewBox="0 0 80 80" fill="none" xmlns="http://www.w3.org/2000/svg">
<path d="M40 18.75C34.8295 18.75 30.625 22.9545 30.625 28.125C30.625 33.3202 34.822 37.5 40 37.5C45.2708 37.5 49.375 33.2414 49.375 28.125C49.375 22.9545 45.1705 18.75 40 18.75Z" fill="#640000"/>
<path d="M40 0C24.4909 0 11.875 12.6159 11.875 28.125C11.875 33.3641 13.3261 38.4773 16.0705 42.9131L38.398 78.8911C39.3237 80.3863 41.5066 80.3634 42.4034 78.8591L64.1609 42.5331C66.7517 38.1912 68.125 33.2084 68.125 28.125C68.125 12.6159 55.5091 0 40 0ZM40 42.2188C32.1336 42.2188 25.9062 35.8158 25.9062 28.125C25.9062 20.3705 32.2455 14.0312 40 14.0312C47.7545 14.0312 54.0938 20.3705 54.0938 28.125C54.0938 35.748 47.9502 42.2188 40 42.2188Z" fill="#640000"/>
</svg>
