<svg width="16" height="20" viewBox="0 0 16 20" fill="none" xmlns="http://www.w3.org/2000/svg">
<path d="M8 0C4.12273 0 0.96875 3.15398 0.96875 7.03125C0.96875 8.34101 1.33152 9.61934 2.01762 10.7283L7.59949 19.7228C7.83094 20.0966 8.37664 20.0909 8.60086 19.7148L14.0402 10.6333C14.6879 9.54781 15.0312 8.30211 15.0312 7.03125C15.0312 3.15398 11.8773 0 8 0ZM8 10.5547C6.0334 10.5547 4.47656 8.95394 4.47656 7.03125C4.47656 5.09262 6.06137 3.50781 8 3.50781C9.93863 3.50781 11.5234 5.09262 11.5234 7.03125C11.5234 8.93699 9.98754 10.5547 8 10.5547Z" fill="#640000"/>
</svg>
