<svg width="47" height="80" viewBox="0 0 47 80" fill="none" xmlns="http://www.w3.org/2000/svg">
<g clip-path="url(#clip0)">
<path d="M0 44.2639H1.77894C2.33298 44.2639 2.8236 43.8043 3.21744 42.9022C3.92835 41.2546 13.9211 14.9239 13.8977 14.9307H15.6567L22.4086 32.7137L18.3267 43.3107L16.0438 37.2344H7.11575C7.11575 37.2344 5.56711 41.2478 5.03643 42.6367C4.87956 43.0452 4.75941 44.2469 5.75735 44.2435C7.32268 44.2435 8.3807 44.2435 8.3807 44.2435L8.94809 45.8128H0.490627L0 44.3047V44.2639Z" fill="#202020"/>
<path d="M11.6348 25.5103L7.71649 35.6749H15.453L11.6348 25.5103Z" fill="white"/>
<path d="M5 83L38.6959 -3H40.0748L24.9615 35.5588H40.4615L44 44.8295H42.176C42.176 44.8295 38.1305 37.2584 32.6914 37.1888C27.2524 37.1192 25.5342 37.1228 25.5342 37.1228L30.51 50.1736C30.51 50.1736 36.9595 51.4995 35.0699 44.2398H36.7406L42.063 58.1952H40.3922C40.3922 58.1952 36.9741 50.8951 31.1666 51.8878L36.6385 66.2352H40.9467L41.6033 67.9567H24.7207L24.0641 66.2352H27.836L20.4928 46.9796L6.37892 83H5Z" fill="#202020" stroke="#202020" stroke-width="0.22" stroke-linejoin="bevel"/>
<path d="M14.6854 79.5675V70.4819H15.8135L21.4874 77.1302V70.4819H22.9727V79.5675L21.6977 79.5845L16.1707 73.0895V79.5675H14.6854Z" fill="#202020"/>
<path d="M27.0946 70.4819H25.6794V79.5641H27.0946V70.4819Z" fill="#202020"/>
<path d="M31.2132 74.4409L34.8411 70.4819H36.7769L32.8219 74.8018L37.5513 79.5675H35.4986L31.2132 75.3907V79.5675H29.798V70.4819H31.2132V74.4409Z" fill="#202020"/>
<path d="M38.2121 79.5675L41.9969 70.4819H43.095L47 79.5675L45.4547 79.5947L44.3266 76.9395H40.8455L39.7507 79.5675H38.2121Z" fill="#202020"/>
<path d="M41.3895 75.636L42.5577 72.8276L43.7659 75.636H41.3895Z" fill="white"/>
</g>
<defs>
<clipPath id="clip0">
<rect width="47" height="80" fill="white"/>
</clipPath>
</defs>
</svg>
